<svg xmlns="http://www.w3.org/2000/svg" xmlns:xlink="http://www.w3.org/1999/xlink" version="1.1" data-diagram-type="CLASS" style="width:841px;height:529px;background:#FFFFFF;" width="841px" height="529px" viewBox="0 0 841 529" zoomAndPan="magnify" preserveAspectRatio="none" contentStyleType="text/css"><?plantuml 1.2026.8beta1?><defs/><g font-family="sans-serif" lengthAdjust="spacing"><g class="title" data-source-line="1"><text x="203.447" y="22.995" fill="#000" font-size="14" textLength="427.793" font-weight="700">Controle de Frota — Modelo Entidade-Relacionamento</text></g><!--class usuario--><g class="entity" data-qualified-name="usuario" id="ent0001" data-source-line="5"><rect x="10.17" y="60.597" width="214.604" height="140.078" fill="#F1F1F1" style="stroke:#181818;stroke-width:0.5;" rx="2.5" ry="2.5"/><text x="91.557" y="78.592" fill="#000" font-size="14" textLength="51.83">usuario</text><line x1="11.17" y1="86.894" x2="223.774" y2="86.894" style="stroke:#181818;stroke-width:0.5;"/><g data-visibility-modifier="IE_MANDATORY"><ellipse cx="21.17" cy="100.542" rx="3" ry="3" fill="#000" style="stroke:#000;stroke-width:1;"/></g><text x="30.17" y="103.889" fill="#000" font-size="14" textLength="113.333">id : BIGINT «PK»</text><line x1="11.17" y1="111.191" x2="223.774" y2="111.191" style="stroke:#181818;stroke-width:1;"/><text x="16.17" y="128.186" fill="#000" font-size="14" textLength="159.441">nome : VARCHAR(120)</text><text x="16.17" y="144.483" fill="#000" font-size="14" textLength="199.37">email : VARCHAR(150) «UK»</text><text x="16.17" y="160.779" fill="#000" font-size="14" textLength="202.604">senha_hash : VARCHAR(255)</text><text x="16.17" y="177.076" fill="#000" font-size="14" textLength="91.226">perfil : ENUM</text><text x="16.17" y="193.373" fill="#000" font-size="14" textLength="116.765">ativo : BOOLEAN</text></g><!--class funcionario--><g class="entity" data-qualified-name="funcionario" id="ent0002" data-source-line="15"><rect x="260.16" y="44.297" width="250.615" height="172.672" fill="#F1F1F1" style="stroke:#181818;stroke-width:0.5;" rx="2.5" ry="2.5"/><text x="346.222" y="62.292" fill="#000" font-size="14" textLength="78.49">funcionario</text><line x1="261.16" y1="70.594" x2="509.775" y2="70.594" style="stroke:#181818;stroke-width:0.5;"/><g data-visibility-modifier="IE_MANDATORY"><ellipse cx="271.16" cy="84.242" rx="3" ry="3" fill="#000" style="stroke:#000;stroke-width:1;"/></g><text x="280.16" y="87.589" fill="#000" font-size="14" textLength="113.333">id : BIGINT «PK»</text><line x1="261.16" y1="94.891" x2="509.775" y2="94.891" style="stroke:#181818;stroke-width:1;"/><text x="266.16" y="111.886" fill="#000" font-size="14" textLength="159.441">nome : VARCHAR(120)</text><text x="266.16" y="128.183" fill="#000" font-size="14" textLength="218.244">matricula : VARCHAR(30) «UK»</text><text x="266.16" y="144.479" fill="#000" font-size="14" textLength="144.484">cpf : CHAR(11) «UK»</text><text x="266.16" y="160.776" fill="#000" font-size="14" textLength="238.615">numero_cnh : VARCHAR(20) «UK»</text><text x="266.16" y="177.073" fill="#000" font-size="14" textLength="200.437">categoria_cnh : VARCHAR(5)</text><text x="266.16" y="193.37" fill="#000" font-size="14" textLength="143.425">validade_cnh : DATE</text><text x="266.16" y="209.667" fill="#000" font-size="14" textLength="116.765">ativo : BOOLEAN</text></g><!--class veiculo--><g class="entity" data-qualified-name="veiculo" id="ent0003" data-source-line="27"><rect x="546.26" y="44.297" width="280.427" height="172.672" fill="#F1F1F1" style="stroke:#181818;stroke-width:0.5;" rx="2.5" ry="2.5"/><text x="661.567" y="62.292" fill="#000" font-size="14" textLength="49.813">veiculo</text><line x1="547.26" y1="70.594" x2="825.687" y2="70.594" style="stroke:#181818;stroke-width:0.5;"/><g data-visibility-modifier="IE_MANDATORY"><ellipse cx="557.26" cy="84.242" rx="3" ry="3" fill="#000" style="stroke:#000;stroke-width:1;"/></g><text x="566.26" y="87.589" fill="#000" font-size="14" textLength="113.333">id : BIGINT «PK»</text><line x1="547.26" y1="94.891" x2="825.687" y2="94.891" style="stroke:#181818;stroke-width:1;"/><text x="552.26" y="111.886" fill="#000" font-size="14" textLength="151.696">placa : CHAR(7) «UK»</text><text x="552.26" y="128.183" fill="#000" font-size="14" textLength="82.093">tipo : ENUM</text><text x="552.26" y="144.479" fill="#000" font-size="14" textLength="155.094">marca : VARCHAR(60)</text><text x="552.26" y="160.776" fill="#000" font-size="14" textLength="163.003">modelo : VARCHAR(80)</text><text x="552.26" y="177.073" fill="#000" font-size="14" textLength="259.943">categoria_cnh_minima : VARCHAR(5)</text><text x="552.26" y="193.37" fill="#000" font-size="14" textLength="268.427">quilometragem_atual : DECIMAL(12,1)</text><text x="552.26" y="209.667" fill="#000" font-size="14" textLength="98.28">status : ENUM</text></g><!--class saida--><g class="entity" data-qualified-name="saida" id="ent0004" data-source-line="39"><rect x="64.61" y="276.967" width="373.71" height="237.859" fill="#F1F1F1" style="stroke:#181818;stroke-width:0.5;" rx="2.5" ry="2.5"/><text x="204.444" y="294.962" fill="#000" font-size="14" textLength="94.042">saida_veiculo</text><line x1="65.61" y1="303.264" x2="437.32" y2="303.264" style="stroke:#181818;stroke-width:0.5;"/><g data-visibility-modifier="IE_MANDATORY"><ellipse cx="75.61" cy="316.912" rx="3" ry="3" fill="#000" style="stroke:#000;stroke-width:1;"/></g><text x="84.61" y="320.259" fill="#000" font-size="14" textLength="113.333">id : BIGINT «PK»</text><line x1="65.61" y1="327.561" x2="437.32" y2="327.561" style="stroke:#181818;stroke-width:1;"/><text x="70.61" y="344.556" fill="#000" font-size="14" textLength="169.757">veiculo_id : BIGINT «FK»</text><text x="70.61" y="360.853" fill="#000" font-size="14" textLength="187.209">motorista_id : BIGINT «FK»</text><text x="70.61" y="377.149" fill="#000" font-size="14" textLength="221.867">registrado_por_id : BIGINT «FK»</text><text x="70.61" y="393.446" fill="#000" font-size="14" textLength="285.886">encerrado_por_id : BIGINT «FK, nullable»</text><text x="70.61" y="409.743" fill="#000" font-size="14" textLength="199.514">data_hora_saida : DATETIME</text><text x="70.61" y="426.04" fill="#000" font-size="14" textLength="270.245">quilometragem_saida : DECIMAL(12,1)</text><text x="70.61" y="442.337" fill="#000" font-size="14" textLength="171.363">destino : VARCHAR(255)</text><text x="70.61" y="458.634" fill="#000" font-size="14" textLength="290.979">data_hora_retorno : DATETIME «nullable»</text><text x="70.61" y="474.931" fill="#000" font-size="14" textLength="361.71">quilometragem_retorno : DECIMAL(12,1) «nullable»</text><text x="70.61" y="491.228" fill="#000" font-size="14" textLength="98.28">status : ENUM</text><text x="70.61" y="507.524" fill="#000" font-size="14" textLength="286.686">veiculo_em_uso_id : BIGINT «UK gerada»</text></g><!--link veiculo to saida--><g class="link" data-entity-1="ent0003" data-entity-2="ent0004" id="lnk5" data-source-line="55" data-link-type="crowfoot"><path d="M686.47,225.427 C686.47,303.107 686.47,396.827 686.47,396.827 C686.47,396.827 574.61,396.827 456.79,396.827" style="stroke:#181818;stroke-width:1;" fill="none" id="veiculo-saida" codeLine="55"/><line x1="682.47" y1="221.427" x2="690.47" y2="221.427" style="stroke:#181818;stroke-width:1;"/><line x1="682.47" y1="224.427" x2="690.47" y2="224.427" style="stroke:#181818;stroke-width:1;"/><line x1="686.47" y1="225.427" x2="686.47" y2="217.427" style="stroke:#181818;stroke-width:1;"/><line x1="446.79" y1="396.827" x2="438.79" y2="402.827" style="stroke:#181818;stroke-width:1;"/><line x1="446.79" y1="396.827" x2="438.79" y2="390.827" style="stroke:#181818;stroke-width:1;"/><line x1="446.79" y1="396.827" x2="438.79" y2="396.827" style="stroke:#181818;stroke-width:1;"/><ellipse cx="452.79" cy="396.827" rx="4" ry="4" fill="none" style="stroke:#181818;stroke-width:1;"/><text x="572.33" y="392.894" fill="#000" font-size="13" textLength="79.961">utilizado em</text></g><!--link funcionario to saida--><g class="link" data-entity-1="ent0002" data-entity-2="ent0004" id="lnk6" data-source-line="56" data-link-type="crowfoot"><path d="M349.24,225.127 C349.24,244.177 349.24,238.677 349.24,258.757" style="stroke:#181818;stroke-width:1;" fill="none" id="funcionario-saida" codeLine="56"/><line x1="345.24" y1="221.127" x2="353.24" y2="221.127" style="stroke:#181818;stroke-width:1;"/><line x1="345.24" y1="224.127" x2="353.24" y2="224.127" style="stroke:#181818;stroke-width:1;"/><line x1="349.24" y1="225.127" x2="349.24" y2="217.127" style="stroke:#181818;stroke-width:1;"/><line x1="349.24" y1="268.757" x2="355.24" y2="276.757" style="stroke:#181818;stroke-width:1;"/><line x1="349.24" y1="268.757" x2="343.24" y2="276.757" style="stroke:#181818;stroke-width:1;"/><line x1="349.24" y1="268.757" x2="349.24" y2="276.757" style="stroke:#181818;stroke-width:1;"/><ellipse cx="349.24" cy="262.757" rx="4" ry="4" fill="none" style="stroke:#181818;stroke-width:1;"/><text x="286.24" y="243.004" fill="#000" font-size="13" textLength="62.461">motorista</text></g><!--link usuario to saida--><g class="link" data-entity-1="ent0001" data-entity-2="ent0004" id="lnk7" data-source-line="57" data-link-type="crowfoot"><path d="M118,209.017 C118,232.277 118,232.827 118,258.697" style="stroke:#181818;stroke-width:1;" fill="none" id="usuario-saida" codeLine="57"/><line x1="114" y1="205.017" x2="122" y2="205.017" style="stroke:#181818;stroke-width:1;"/><line x1="114" y1="208.017" x2="122" y2="208.017" style="stroke:#181818;stroke-width:1;"/><line x1="118" y1="209.017" x2="118" y2="201.017" style="stroke:#181818;stroke-width:1;"/><line x1="118" y1="268.697" x2="124" y2="276.697" style="stroke:#181818;stroke-width:1;"/><line x1="118" y1="268.697" x2="112" y2="276.697" style="stroke:#181818;stroke-width:1;"/><line x1="118" y1="268.697" x2="118" y2="276.697" style="stroke:#181818;stroke-width:1;"/><ellipse cx="118" cy="262.697" rx="4" ry="4" fill="none" style="stroke:#181818;stroke-width:1;"/><text x="7" y="234.924" fill="#000" font-size="13" textLength="110.729">registra abertura</text></g><!--link usuario to saida--><g class="link" data-entity-1="ent0001" data-entity-2="ent0004" id="lnk8" data-source-line="58" data-link-type="crowfoot"><path d="M171.39,209.017 C171.39,232.277 171.39,232.827 171.39,258.697" style="stroke:#181818;stroke-width:1;" fill="none" id="usuario-saida-1" codeLine="58"/><line x1="167.39" y1="205.017" x2="175.39" y2="205.017" style="stroke:#181818;stroke-width:1;"/><line x1="167.39" y1="208.017" x2="175.39" y2="208.017" style="stroke:#181818;stroke-width:1;"/><line x1="171.39" y1="209.017" x2="171.39" y2="201.017" style="stroke:#181818;stroke-width:1;"/><line x1="171.39" y1="268.697" x2="177.39" y2="276.697" style="stroke:#181818;stroke-width:1;"/><line x1="171.39" y1="268.697" x2="165.39" y2="276.697" style="stroke:#181818;stroke-width:1;"/><line x1="171.39" y1="268.697" x2="171.39" y2="276.697" style="stroke:#181818;stroke-width:1;"/><ellipse cx="171.39" cy="262.697" rx="4" ry="4" fill="none" style="stroke:#181818;stroke-width:1;"/><text x="24.39" y="251.924" fill="#000" font-size="13" textLength="146.51">registra encerramento</text></g><?plantuml-src dLJRQjj047tNLonvQaeCSOhRK4B0TPJM97QAiVig9jBO6heNTRKof4cW7z4lp9Tq95dHIabhw8jOpPpPEUVCxZfo4iN4Q6SDBn8KbzOu44-_VekPIL0Q4Mf72IGuMA24c8m6XTgP82L6nsHZYK7-dNG65fIGfD7TPIYCTQa90eQIknC7HLw09NCW81UxjRWFX7WhA14VnQVfv-byASxElbwTdtDuCE2FDWevzssyc7mPBzuCJuuFEOeAIFhXqV4X5wxgmXnr2b4AUUf1JaQZiZ93kwvAm_bgnl_WQ6lAvZStr-5u7ZosTDU5hgGsbBt__wIjm5cA2mbUwftFFCxMdAfBXbvS5mgjYMBTKTIf18SROmbwe4hq5cGrlbtkOhmC_orzYoNDMlPklLTonYS36lOVF6gECjCQhi36llxtjJFrEMl3frMueofIf4b1NzoFWYIxxIniK4NW2YZ7Un5EfhFnDJj_D2nHkUDCtj3mfER0raI-u2goL-wk8keYBck4CevPSy_NqnOtdBIGc2WpzdKCwXZjNo57V2IaX5k95JW1RfKQ2r5DlfxnSZeBNnZq3EWPb63kI9kNDwRTsoAhgY3DxiobmwFRoiFxpVf5tT6qpl8EHTutU7KbDiYs09Vo59l3-V0m69XxqOWh74dwoURnIn7uzxQ7UvvJqBn7FK0pAG6tQ5rXzmDtSwlUnpy0?></g></svg>